<svg width="29" height="29" viewBox="0 0 29 29" fill="none" xmlns="http://www.w3.org/2000/svg">
<path d="M14.5 29C22.5081 29 29 22.5081 29 14.5C29 6.49187 22.5081 0 14.5 0C6.49187 0 0 6.49187 0 14.5C0 22.5081 6.49187 29 14.5 29Z" fill="#199385"/>
<path d="M19.5571 9.37128C18.9461 8.48897 18.1302 7.76792 17.1795 7.26989C16.2288 6.77187 15.1716 6.51172 14.0983 6.51172C13.025 6.51172 11.9678 6.77187 11.0171 7.26989C10.0664 7.76792 9.25054 8.48897 8.63948 9.37128C8.02524 10.2526 7.63397 11.2698 7.49923 12.3355C7.36448 13.4013 7.49029 14.4838 7.86586 15.4903C8.08943 16.0742 8.41587 16.6132 8.82969 17.0819L13.6599 22.7556C13.7139 22.8191 13.781 22.8701 13.8566 22.9051C13.9322 22.94 14.0146 22.9581 14.0979 22.9581C14.1812 22.9581 14.2635 22.94 14.3391 22.9051C14.4148 22.8701 14.4819 22.8191 14.5359 22.7556L19.3652 17.0836C19.7787 16.6156 20.1051 16.0775 20.329 15.4945C20.7054 14.4876 20.8318 13.4044 20.6974 12.3378C20.5629 11.2713 20.1717 10.2533 19.5571 9.37128V9.37128ZM19.2518 15.0911C19.0751 15.5473 18.8183 15.9681 18.4935 16.3338L14.1009 21.4933L9.70566 16.3304C9.37991 15.9638 9.12252 15.5417 8.94569 15.0843C8.63528 14.2515 8.53156 13.3558 8.64343 12.4741C8.75529 11.5924 9.0794 10.751 9.58795 10.0221C10.0932 9.29282 10.7677 8.69688 11.5537 8.28527C12.3397 7.87367 13.2137 7.65866 14.1009 7.65866C14.9881 7.65866 15.8621 7.87367 16.648 8.28527C17.434 8.69688 18.1085 9.29282 18.6138 10.0221C19.1228 10.7523 19.4468 11.5952 19.558 12.4783C19.6691 13.3615 19.564 14.2584 19.2518 15.092V15.0911Z" fill="white"/>
<path d="M14.0975 9.92395C13.4606 9.92395 12.8381 10.1128 12.3086 10.4666C11.7791 10.8204 11.3664 11.3233 11.1227 11.9116C10.879 12.5 10.8152 13.1474 10.9395 13.772C11.0637 14.3966 11.3704 14.9703 11.8207 15.4206C12.271 15.8709 12.8447 16.1775 13.4693 16.3018C14.0939 16.426 14.7413 16.3623 15.3296 16.1186C15.918 15.8749 16.4209 15.4622 16.7747 14.9327C17.1285 14.4032 17.3173 13.7806 17.3173 13.1438C17.3162 12.2902 16.9766 11.4719 16.373 10.8683C15.7694 10.2647 14.9511 9.92508 14.0975 9.92395V9.92395ZM14.0975 15.2122C13.688 15.2122 13.2878 15.0908 12.9474 14.8633C12.6069 14.6358 12.3416 14.3125 12.1849 13.9343C12.0283 13.556 11.9873 13.1398 12.0671 12.7382C12.147 12.3367 12.3442 11.9678 12.6337 11.6783C12.9232 11.3888 13.292 11.1917 13.6936 11.1118C14.0951 11.0319 14.5114 11.0729 14.8896 11.2296C15.2679 11.3863 15.5912 11.6516 15.8187 11.992C16.0461 12.3324 16.1675 12.7327 16.1675 13.1421C16.1675 13.6914 15.9495 14.2182 15.5614 14.6068C15.1732 14.9954 14.6467 15.2141 14.0975 15.2147V15.2122Z" fill="white"/>
</svg>
